/* XPM */
static char *pacman1[] = {
/* columns rows colors chars-per-pixel */
"30 30 30 1 ",
"  c yellow",
". c #FFFF01",
"X c #FEFE02",
"o c #FFFE02",
"O c #FFFF02",
"+ c #FEFE03",
"@ c #FEFE04",
"# c #FFFE04",
"$ c #FEFE05",
"% c #FDFE07",
"& c #FEFE06",
"* c #FEFE07",
"= c #FDFD08",
"- c #FDFD09",
"; c #FEFD08",
": c #FDFE08",
"> c #FDFE09",
", c #FEFE08",
"< c #FEFE09",
"1 c #FDFD0A",
"2 c #FDFD0B",
"3 c #FDFE0A",
"4 c #FEFE0A",
"5 c #FDFD0C",
"6 c #FDFD0D",
"7 c #FCFD0E",
"8 c #FDFD0E",
"9 c #FCFD0F",
"0 c #FCFC11",
"q c None",
/* pixels */
"qqqqqqqqqqq9&    =9qqqqqqqqqqq",
"qqqqqqqq9&&         &9qqqqqqqq",
"qqqqqqq=              =qqqqqqq",
"qqqqq=&                &9qqqqq",
"qqqq9                    9qqqq",
"qqq9                      9qqq",
"qqq                       &qqq",
"qq&                        =qq",
"q9                          qq",
"q=                          =q",
"q                           &q",
"9                            9",
"=                            =",
"=                     &&&&===0",
"               ==999qqqqqqqqqq",
"               &=&&&9=qqqqqqqq",
"=                        &&&&9",
"9                            =",
"9                            0",
"q                           &q",
"q=                          =q",
"qq                         &qq",
"qq=                        =qq",
"qqq&                      =qqq",
"qqqq&                    &qqqq",
"qqqq9&                  &qqqqq",
"qqqqqq&                &qqqqqq",
"qqqqqqq=&            &=qqqqqqq",
"qqqqqqqqq=&       &&=qqqqqqqqq",
"qqqqqqqqqqq99=&&=9qqqqqqqqqqqq"
};
