/* XPM */
static char *pacman4[] = {
/* columns rows colors chars-per-pixel */
"30 30 30 1 ",
"  c yellow",
". c #FFFF01",
"X c #FEFE02",
"o c #FFFE02",
"O c #FFFF02",
"+ c #FEFE03",
"@ c #FEFF03",
"# c #FEFE04",
"$ c #FEFE05",
"% c #FEFD07",
"& c #FEFE06",
"* c #FEFE07",
"= c #FDFD09",
"- c #FEFD08",
"; c #FDFE08",
": c #FEFE08",
"> c #FEFE09",
", c #FDFD0A",
"< c #FDFD0B",
"1 c #FDFE0A",
"2 c #FDFD0C",
"3 c #FCFD0D",
"4 c #FDFD0D",
"5 c #FCFD0E",
"6 c #FDFD0E",
"7 c #FCFC0F",
"8 c #FCFD0F",
"9 c #FDFD0F",
"0 c #FDFD10",
"q c None",
/* pixels */
"qqqqqqqqqqq5:$   :50qqqqqqqqqq",
"qqqqqqqq0:$         $:qqqqqqqq",
"qqqqqqq$              $5qqqqqq",
"qqqqq5$                $:qqqqq",
"qqqq5                    :qqqq",
"qqq5$                     :qqq",
"qqq$                       2qq",
"qq:                         qq",
"qq$                         :q",
"q:                          :q",
"q$                       $:0qq",
"5                     $:5qqqqq",
":                   $5qqqqqqqq",
":                $5qqqqqqqqqqq",
":              :0qqqqqqqqqqqqq",
",              $:qqqqqqqqqqqqq",
":                $$5qqqqqqqqqq",
"3                    :5qqqqqqq",
"5                      $:qqqqq",
"q$                        $:qq",
"q5                          $q",
"qq$                         :q",
"qq:                         qq",
"qqq:                      $5qq",
"qqqq$                     <qqq",
"qqqqq$                   5qqqq",
"qqqqqq:                $5qqqqq",
"qqqqqqq:$             $qqqqqqq",
"qqqqqqqqq5$        $:5qqqqqqqq",
"qqqqqqqqqqqq55: :50qqqqqqqqqqq"
};
