/* XPM */
static char *pacman5[] = {
/* columns rows colors chars-per-pixel */
"29 30 32 1 ",
"  c yellow",
". c #FFFF01",
"X c #FEFE02",
"o c #FFFE02",
"O c #FEFF02",
"+ c #FFFF02",
"@ c #FEFE03",
"# c #FFFE03",
"$ c #FEFF03",
"% c #FEFE04",
"& c #FEFE05",
"* c #FDFE07",
"= c #FEFE06",
"- c #FEFE07",
"; c #FDFD08",
": c #FDFD09",
"> c #FEFD08",
", c #FEFD09",
"< c #FDFE08",
"1 c #FEFE08",
"2 c #FDFD0A",
"3 c #FDFD0B",
"4 c #FDFD0C",
"5 c #FDFD0D",
"6 c #FCFD0E",
"7 c #FDFD0E",
"8 c #FCFC0F",
"9 c #FCFD0F",
"0 c #FDFD0F",
"q c #FCFC10",
"w c #FCFC12",
"e c None",
/* pixels */
"eeeeeeeeeee4;;  *;4eeeeeeeeee",
"eeeeeeeee;*        **4eeeeeee",
"eeeeeee;              *eeeeee",
"eeeee4*                 4eeee",
"eeee4*                   ;eee",
"eee4                     *;ee",
"eee*                       4e",
"ee*                        *e",
"eq                         *q",
"e;                       *;ee",
"e                      *4eeee",
"4                    *4eeeeee",
"4                  ;4eeeeeeee",
";              **;eeeeeeeeeee",
"               ;eeeeeeeeeeeee",
"*              ;eeeeeeeeeeeee",
";                ;qeeeeeeeeee",
";                  *4eeeeeeee",
"4                    *4eeeeee",
"e*                     *4eeee",
"e;                       *;ee",
"ee                          q",
"ee;                        *e",
"eee*                       4e",
"eeeq*                     8ee",
"eeee4*                   4eee",
"eeeeee*                *4eeee",
"eeeeeee;*             *eeeeee",
"eeeeeeeee**        **4eeeeeee",
"eeeeeeeeeee44;**;;4eeeeeeeeee"
};
