/* XPM */
static char *_[] = {
/* columns rows colors chars-per-pixel */
"30 30 126 2 ",
"   c None",
".  c #000101",
"X  c #0A0203",
"o  c #150304",
"O  c #230505",
"+  c #2E0707",
"@  c #360606",
"#  c #330708",
"$  c #360809",
"%  c #3C0909",
"&  c #45090A",
"*  c #4A090A",
"=  c #56090A",
"-  c #5C0A0A",
";  c #610A0A",
":  c #6D0B0B",
">  c #730C0D",
",  c #7A0B0C",
"<  c #463434",
"1  c #1A084C",
"2  c #101345",
"3  c #414246",
"4  c #830E0E",
"5  c #8A0C0D",
"6  c #940C0E",
"7  c #9A0F0E",
"8  c #9A100F",
"9  c #870F10",
"0  c #961010",
"q  c #9F1012",
"w  c #A70E0E",
"e  c #AC0E0E",
"r  c #B10E0E",
"t  c #BE0F0E",
"y  c #A41113",
"u  c #A91112",
"i  c #BF1213",
"p  c #C20F0F",
"a  c #CB0F0F",
"s  c #CA100F",
"d  c #DC100E",
"f  c #C41412",
"g  c #D31313",
"h  c #E70F0F",
"j  c #FD0907",
"k  c #F50F0E",
"l  c #FD0C0B",
"z  c #E9100F",
"x  c #F3100E",
"c  c #F8100F",
"v  c #E60F11",
"b  c #EA0B1F",
"n  c #F70C13",
"m  c #F90F10",
"M  c #E41111",
"N  c #EA1211",
"B  c #EE1E1E",
"V  c #F51414",
"C  c #F91212",
"Z  c #F71817",
"A  c #F31C1A",
"S  c #F3211F",
"D  c #E50D23",
"F  c #E20E2A",
"G  c #E51228",
"H  c #EA2929",
"J  c #F22324",
"K  c #E83636",
"L  c #981157",
"P  c #C40E45",
"I  c #D72E47",
"U  c #B34545",
"Y  c #EE4C4B",
"T  c #ED5151",
"R  c #ED5A5B",
"E  c #D76078",
"W  c #EB6260",
"Q  c #EA6B6A",
"!  c #EE7576",
"~  c #EA7C7E",
"^  c #3F0CBB",
"/  c #5E0CA0",
"(  c #5E35BC",
")  c #340AC7",
"_  c #340DC8",
"`  c #2F14D2",
"'  c #301ED9",
"]  c #030DED",
"[  c #0C0EED",
"{  c #000CFD",
"}  c #2E35E8",
"|  c #333FE5",
" . c #323EEC",
".. c #3441ED",
"X. c #5D64E0",
"o. c #757BE7",
"O. c #EC8585",
"+. c #EF8D8C",
"@. c #F09896",
"#. c #EEA2A2",
"$. c #F1A3A3",
"%. c #F1AAA8",
"&. c #EAB3B3",
"*. c #F1B4B2",
"=. c #F3BDBC",
"-. c #F1C0BE",
";. c #8F93E3",
":. c #9196E3",
">. c #F4C2C1",
",. c #F4CDCB",
"<. c #F4D3CF",
"1. c #E9C6D0",
"2. c #F4D6D5",
"3. c #E4D3E2",
"4. c #F6E5E4",
"5. c #F8E8E8",
"6. c #FAF0EF",
"7. c #E7EAF4",
"8. c #ECEFF7",
"9. c #ECEEF8",
"0. c #EEF2FB",
"q. c #F0F2F7",
"w. c #FCF5F4",
"e. c #F3F3F9",
"r. c #F3F8FD",
"t. c #FEFEFD",
/* pixels */
"                      . . . . . . . .                       ",
"                      * = = = = = = &                       ",
"              . . . o i k k k k k k q X . .                 ",
"              = : : , d l l l l l l a > : : *               ",
"          . X 8 l l k l l l l l l l l k k m > .             ",
"        . - 5 a l l l l l l l l l l l l l l t 4 &           ",
"        X 5 l l l k k k k l l l l l l l k k k V ; X         ",
"    . = 7 a l l C ! $.$.+.S l l l l l l Y $.$.#.U 6 % .     ",
"    . : l l l C B =.t.t.4.K c l l l k V ~ t.t.t.Q N & .     ",
"    . : k l k ! =.5.t.t.w.>.@.A l l Y *.2.t.t.t.<.&.< .     ",
"    . : k l k #.t.t.t.q.9.0.1.J l l W t.t.t.e.9.0.7.3 .     ",
"    . : k l k #.t.t.q.X. ...( G l l W w.t.t.:.| ..| 2 .     ",
"    O 4 k l k #.t.t.8.| { { ) F l l W w.t.t.o.{ { ] 1 O     ",
". = g h l l k #.t.t.8.| { { _ F l l W t.t.t.o.{ { [ L f @ . ",
". = k l l l k O.2.6.0.X.} ` / D l l T ,.4.t.;.} ' ^ P z @ . ",
". = k l l l l Z H -.t.0.3.I b k l l C B O.t.r.9.E D n v @ . ",
". = k l l l l l C +.>.>.%.J l l l l l j R =.=.=.Y j l M @ . ",
". = k l l l l l l C Z Z Z k l l l l l l C Z Z Z m l l M @ . ",
". = k l l l l l l l l l l l l l l l l l l l l l l l l M @ . ",
". = k l l l l l l l l l l l l l l l l l l l l l l l l M @ . ",
". = k l l l l l l l l l l l l l l l l l l l l l l l l M @ . ",
". = k l l l l l l l l l l l l l l l l l l l l l l l l M @ . ",
". = k l l l l l l l l l l l l l l l l l l l l l l l l M @ . ",
". = k l l l k l l l l l l k k k k l l l l l k k l l l M @ . ",
". = k l l e ; t l l l l h , - - 5 k l l l l w ; p l l M @ . ",
". = k k x > . 0 k k l k g O . . & M k l k N : . 0 k l v @ . ",
". = c r * $   % = a k > &         & 5 k e * #   % = s N @ . ",
". = M 9 .     . X y g # .         . = M 4 .     . X u g @ . ",
"    @ #           + #                 # +           # #     ",
"    . .           . .                 . .           . .     "
};
