/* XPM */
static char *end_top[] = {
/* columns rows colors chars-per-pixel */
"32 32 2 1 ",
"  c #353094",
". c black",
/* pixels */
"                                ",
"                                ",
"                                ",
"                                ",
"    ........................    ",
"    ........................    ",
"    ........................    ",
"    ...                  ...    ",
"    ...                  ...    ",
"    ...                  ...    ",
"    ...                  ...    ",
"    ...                  ...    ",
"    ...                  ...    ",
"    ...                  ...    ",
"    ...                  ...    ",
"    ...                  ...    ",
"    ...                  ...    ",
"    ...                  ...    ",
"    ...                  ...    ",
"    ...                  ...    ",
"    ...                  ...    ",
"    ...                  ...    ",
"    ...                  ...    ",
"    ...                  ...    ",
"    ...                  ...    ",
"    ...                  ...    ",
"    ...                  ...    ",
"    ...                  ...    ",
"    ...                  ...    ",
"    ...                  ...    ",
"    ...                  ...    ",
"    ...                  ...    "
};
