/* XPM */
static char *t_cross[] = {
/* columns rows colors chars-per-pixel */
"32 32 2 1 ",
"  c #353094",
". c black",
/* pixels */
"    ...                  ...    ",
"    ...                  ...    ",
"    ...                  ...    ",
"    ...                  ...    ",
".......                  .......",
".......                  .......",
".......                  .......",
"                                ",
"                                ",
"                                ",
"                                ",
"                                ",
"                                ",
"                                ",
"                                ",
"                                ",
"                                ",
"                                ",
"                                ",
"                                ",
"                                ",
"                                ",
"                                ",
"                                ",
"                                ",
".......                  .......",
".......                  .......",
".......                  .......",
"    ...                  ...    ",
"    ...                  ...    ",
"    ...                  ...    ",
"    ...                  ...    "
};
