/* XPM */
static char *pacman0[] = {
/* columns rows colors chars-per-pixel */
"30 30 29 1 ",
"  c yellow",
". c #FFFF01",
"X c #FFFE02",
"o c #FFFF02",
"O c #FEFE03",
"+ c #FEFF03",
"@ c #FFFF03",
"# c #FEFE04",
"$ c #FEFE05",
"% c #FDFE06",
"& c #FEFE06",
"* c #FEFE07",
"= c #FDFD09",
"- c #FEFD08",
"; c #FEFD09",
": c #FDFE08",
"> c #FDFE09",
", c #FEFE08",
"< c #FEFE09",
"1 c #FDFD0A",
"2 c #FDFD0B",
"3 c #FEFD0A",
"4 c #FDFD0C",
"5 c #FCFD0D",
"6 c #FDFD0D",
"7 c #FCFD0E",
"8 c #FDFD0E",
"9 c #FCFD0F",
"0 c None",
/* pixels */
"0000000000096>>>>6600000000000",
"000000000> &        >000000000",
"0000000>             &&0000000",
"000000&                &600000",
"00000&                  &>0000",
"0000&                    &6000",
"000&                      &000",
"00>                        &00",
"00                          90",
"0>                          >0",
"0&                           0",
"0                            6",
"6                            >",
">                             ",
">                             ",
"&                             ",
">                             ",
"6                            >",
"9                            6",
"0&                          &0",
"0>                          &0",
"00&                         60",
"00>                        &00",
"000&                      &000",
"0000                      9000",
"00006&                   60000",
"000000&                &600000",
"0000000>&             &0000000",
"000000000>          >600000000",
"000000000006>>  &6600000000000"
};
