/* XPM */
static char *pacman2[] = {
/* columns rows colors chars-per-pixel */
"30 30 34 1 ",
"  c yellow",
". c #FFFF01",
"X c #FEFE02",
"o c #FFFE02",
"O c #FFFF02",
"+ c #FEFE03",
"@ c #FFFE03",
"# c #FEFE04",
"$ c #FEFE05",
"% c #FDFD07",
"& c #FDFE07",
"* c #FEFE06",
"= c #FEFE07",
"- c #FDFD08",
"; c #FDFD09",
": c #FEFD08",
"> c #FDFE08",
", c #FDFE09",
"< c #FEFE08",
"1 c #FEFE09",
"2 c #FDFD0A",
"3 c #FDFD0B",
"4 c #FEFD0A",
"5 c #FDFE0A",
"6 c #FDFD0C",
"7 c #FCFD0D",
"8 c #FDFD0D",
"9 c #FDFC0E",
"0 c #FCFD0E",
"q c #FDFD0E",
"w c #FCFD0F",
"e c #FDFD0F",
"r c #FDFC10",
"t c None",
/* pixels */
"ttttttttttt0-=OOO=-0tttttttttt",
"ttttttttt-OOOOOOOOOOO-tttttttt",
"ttttttt=OOOOOOOOOOOOOOO0tttttt",
"tttttt=OOOOOOOOOOOOOOOOO=ttttt",
"ttttt=OOOOOOOOOOOOOOOOOOO=tttt",
"tttt=OOOOOOOOOOOOOOOOOOOOO=ttt",
"ttt=OOOOOOOOOOOOOOOOOOOOOOO-tt",
"tt0OOOOOOOOOOOOOOOOOOOOOOOOOtt",
"tt=OOOOOOOOOOOOOOOOOOOOOOOOO-t",
"t7OOOOOOOOOOOOOOOOOOOOOOOOOOOt",
"t-OOOOOOOOOOOOOOOOOOOOOOOOOOO-",
"t=OOOOOOOOOOOOOOOOOOOOOOOOOOO-",
"tOOOOOOOOOOOOOOOOOOOOOOOO==-0t",
"0OOOOOOOOOOOOOOOOOO==--ttttttt",
"=OOOOOOOOOOOOOOO00tttttttttttt",
"-OOOOOOOOOOOOOOO---ttttttttttt",
"rOOOOOOOOOOOOOOOOOOOOO=;-ttttt",
"tOOOOOOOOOOOOOOOOOOOOOOOOO==--",
"t=OOOOOOOOOOOOOOOOOOOOOOOOOOO=",
"t-OOOOOOOOOOOOOOOOOOOOOOOOOOO0",
"ttOOOOOOOOOOOOOOOOOOOOOOOOOO=t",
"tt=OOOOOOOOOOOOOOOOOOOOOOOOO-t",
"tttOOOOOOOOOOOOOOOOOOOOOOOO=tt",
"ttt=OOOOOOOOOOOOOOOOOOOOOOO0tt",
"tttt-OOOOOOOOOOOOOOOOOOOOO-ttt",
"ttttt-OOOOOOOOOOOOOOOOOOO=tttt",
"tttttt-OOOOOOOOOOOOOOOOO-ttttt",
"ttttttt0OOOOOOOOOOOOOO=ttttttt",
"ttttttttt0=OOOOOOOOO-rtttttttt",
"tttttttttttt0-==;;0ttttttttttt"
};
