/* XPM */
static char *pacman3[] = {
/* columns rows colors chars-per-pixel */
"30 30 29 1 ",
"  c yellow",
". c #FFFE01",
"X c #FFFF01",
"o c #FFFE02",
"O c #FFFF02",
"+ c #FEFE03",
"@ c #FFFE03",
"# c #FEFE04",
"$ c #FEFE05",
"% c #FDFE07",
"& c #FEFE06",
"* c #FEFE07",
"= c #FDFD08",
"- c #FDFD09",
"; c #FEFD08",
": c #FEFD09",
"> c #FDFE08",
", c #FDFE09",
"< c #FEFE08",
"1 c #FDFD0A",
"2 c #FDFD0B",
"3 c #FDFD0C",
"4 c #FDFC0D",
"5 c #FCFD0D",
"6 c #FDFD0D",
"7 c #FDFD0E",
"8 c #FCFD0F",
"9 c #FDFD0F",
"0 c None",
/* pixels */
"000000000007>>$ $>700000000000",
"000000000>$         $700000000",
"0000000>$             $7000000",
"000000$                $>00000",
"00007$                   >0000",
"0000$                     >000",
"000$                       400",
"00>                        $00",
"00                          >0",
"02                           0",
"0$                          $7",
"7                         $>00",
"7                     >>900000",
"$                $$>7000000000",
">              >70000000000000",
">              $>0000000000000",
">                 $$>000000000",
"7                     $>700000",
"7                         $>70",
"0                            7",
"0>                          $0",
"00$                         >0",
"00>                        $00",
"000>                       700",
"0000$                    $>000",
"00009$                   >0000",
"000000>                $>00000",
"0000000>$             $7000000",
"000000000>$        $$700000000",
"0000000000097>>>$7700000000000"
};
